<?xml version="1.0" encoding="UTF-8" standalone="no"?>
<!-- Created with Inkscape (http://www.inkscape.org/) -->

<!-- Pharo_Icon_v3.0.svg -->

<svg
   xmlns:dc="http://purl.org/dc/elements/1.1/"
   xmlns:cc="http://creativecommons.org/ns#"
   xmlns:rdf="http://www.w3.org/1999/02/22-rdf-syntax-ns#"
   xmlns:svg="http://www.w3.org/2000/svg"
   xmlns="http://www.w3.org/2000/svg"
   xmlns:xlink="http://www.w3.org/1999/xlink"
   xmlns:sodipodi="http://sodipodi.sourceforge.net/DTD/sodipodi-0.dtd"
   xmlns:inkscape="http://www.inkscape.org/namespaces/inkscape"
   version="1.1"
   width="243"
   height="243"
   id="Pharo"
   inkscape:version="0.48.5 r10040"
   sodipodi:docname="Pharo_Icon_v3.0.svg">
  <metadata
     id="metadata153">
    <rdf:RDF>
      <cc:Work
         rdf:about="">
        <dc:format>image/svg+xml</dc:format>
        <dc:type
           rdf:resource="http://purl.org/dc/dcmitype/StillImage" />
      </cc:Work>
    </rdf:RDF>
  </metadata>
  <sodipodi:namedview
     pagecolor="#ffffff"
     bordercolor="#666666"
     borderopacity="1"
     objecttolerance="10"
     gridtolerance="10"
     guidetolerance="10"
     inkscape:pageopacity="0"
     inkscape:pageshadow="2"
     inkscape:window-width="1366"
     inkscape:window-height="702"
     id="namedview151"
     showgrid="false"
     inkscape:zoom="0.97119342"
     inkscape:cx="306.83898"
     inkscape:cy="121.5"
     inkscape:window-x="0"
     inkscape:window-y="27"
     inkscape:window-maximized="1"
     inkscape:current-layer="Pharo" />
  <defs
     id="defs_logo_Pharo">
    <linearGradient
       x1="0"
       y1="0"
       x2="1"
       y2="0"
       id="lG_fire"
       gradientUnits="userSpaceOnUse"
       gradientTransform="matrix(0,12.7,-12.7,0,640,65)"
       spreadMethod="pad">
      <stop
         id="stop3677"
         style="stop-color:#f7931e;stop-opacity:1"
         offset="0" />
      <stop
         id="stop3679"
         style="stop-color:#ed1c24;stop-opacity:1"
         offset="1" />
    </linearGradient>
    <linearGradient
       x1="0.4"
       y1="0"
       x2="1"
       y2="0"
       id="lG_column"
       gradientUnits="userSpaceOnUse"
       gradientTransform="matrix(10.76,-145.87,145.87,10.76,631.57,223.43)"
       spreadMethod="pad">
      <stop
         id="stop4289"
         style="stop-color:#2b98d8;stop-opacity:1"
         offset="0" />
      <stop
         id="stop4291"
         style="stop-color:#a10b0b;stop-opacity:1"
         offset="1" />
    </linearGradient>
    <linearGradient
       inkscape:collect="always"
       xlink:href="#lG_column"
       id="linearGradient4054"
       gradientUnits="userSpaceOnUse"
       gradientTransform="matrix(10.76,-145.87,145.87,10.76,631.57,223.43)"
       spreadMethod="pad"
       x1="0.4"
       y1="0"
       x2="1"
       y2="0" />
  </defs>
  <g
     id="g4196">
    <path
       d="M 119.16,10.63 C 87.1,10.78 58.08,23.22 37.12,43.25 l 0,0 C 23.14,56.6 12.72,73.36 7.38,92.1 l 0,0 c 0.06,-0.04 0.1,-0.08 0.14,-0.12 l 0,0 C 7.91,91.46 7.87,90.6 8.55,90.34 l 0,0 c 0.34,-0.62 0.42,-1.32 0.78,-1.9 l 0,0 c 0.14,-0.22 0.49,-0.35 0.6,-0.58 l 0,0 c 0.23,-0.46 -0.01,-1.04 0.35,-1.45 l 0,0 c 0.68,-0.04 1.02,-0.69 1.73,-0.68 l 0,0 c -0.1,0.89 -0.66,1.81 -1.18,2.48 l 0,0 c -0.11,0.67 -0.09,1.45 -0.42,2.02 l 0,0 c -0.24,0.44 -0.74,0.76 -0.98,1.29 l 0,0 C 9.24,91.96 9.29,92.4 9.12,92.86 l 0,0 c -0.14,0.38 -0.55,0.67 -0.65,1.1 l 0,0 c -0.03,0.16 0.06,0.38 0.02,0.55 l 0,0 C 8.31,95.36 7.96,96.4 7.53,97.13 l 0,0 c -0.81,1.4 -2.08,2.62 -1.78,4.26 l 0,0 c -0.17,0.32 -0.61,0.53 -0.71,0.9 l 0,0 c -0.06,0.19 0.1,0.36 0.08,0.56 l 0,0 c -0.02,0.36 -0.22,0.69 -0.39,1.02 l 0,0 c -0.28,1.68 -0.51,3.36 -0.7,5.05 l 0,0 c 0.04,0.07 0.07,0.14 0.12,0.21 l 0,0 c -0.32,0.57 -0.17,0.97 0.23,1.34 l 0,0 c -0.48,1.93 -0.3,3.98 0.52,5.52 l 0,0 c -0.33,1.36 -0.91,3.19 -0.2,4.26 l 0,0 c -0.76,0.96 0.09,1.97 -0.4,2.99 l 0,0 c -0.04,0.23 0.18,0.35 0.22,0.55 l 0,0 c -0.29,0.5 -0.12,1.1 0.17,1.5 l 0,0 c -0.53,1.03 -0.69,2.66 -0.38,3.73 l 0,0 c -0.17,1.08 -0.16,2.47 0.27,3.46 l 0,0 c -0.26,0.71 0.17,1.26 0.14,2.03 l 0,0 c -0.01,0.27 0.23,1.08 0.19,1.45 l 0,0 c -0.11,1.01 0.28,2.04 0.11,3.1 l 0,0 c 0.18,0.42 0.23,0.9 0.15,1.42 l 0,0 c 0.94,4.92 2.21,9.73 3.81,14.41 l 0,0 c 0.03,0.03 0.04,0.06 0.08,0.09 l 0,0 c -0.01,0.03 -0.01,0.06 -0.02,0.08 l 0,0 c 0.09,0.26 0.18,0.52 0.27,0.78 l 0,0 c 0.03,0.02 0.07,0.04 0.13,0.05 l 0,0 c -0.05,0.53 0.46,0.93 0.68,1.43 l 0,0 c 0.14,0.33 0.13,0.7 0.34,1.02 l 0,0 c 0.24,0.38 0.81,0.85 0.99,1.3 l 0,0 c 0.14,0.34 0.09,0.66 0.2,1.03 l 0,0 c 0.36,0.39 0.48,0.88 0.55,1.39 l 0,0 c 0.71,0.51 0.56,1.37 1.04,1.98 l 0,0 c -0.25,1.24 1.07,1.83 1.11,2.96 l 0,0 c 0.82,0.74 0.7,1.76 1.1,2.6 l 0,0 c 0.14,0.27 0.62,0.32 0.98,0.56 l 0,0 c 0.49,0.36 0.46,0.99 0.76,1.4 l 0,0 c -0.62,1.29 1.07,1.99 2.38,2 l 0,0 c 0.56,0.54 0.68,1.26 0.92,1.94 l 0,0 c 0.28,0.23 0.66,0.43 0.61,0.8 l 0,0 c 0.94,0.41 0.61,1.35 1.52,1.77 l 0,0 c 0.08,0.72 0.56,1.28 1.01,1.85 l 0,0 c -0.09,1.12 1.52,1.52 1.5,2.61 l 0,0 c 0.12,0.25 0.3,0.47 0.69,0.6 l 0,0 c 0.03,1.25 0.47,2.34 0.81,3.46 l 0,0 c 0.19,0.09 0.3,0.06 0.44,0.09 l 0,0 c 0.51,1.02 1.18,1.98 1.72,2.99 l 0,0 c 0.4,0.14 0.52,0.4 0.9,0.55 l 0,0 c 0.37,0.89 1.21,1.79 2.48,2.15 l 0,0 c 0.12,0.17 0.16,0.37 0.14,0.59 l 0,0 c 0.69,0.77 1.36,1.54 2.18,2.25 l 0,0 c 0.69,0.27 1.19,0.62 1.49,1.04 l 0,0 c 0.25,0.08 0.4,0.02 0.73,0.07 l 0,0 c -0.13,0.28 0.47,0.27 0.52,0.47 l 0,0 c 0.08,1.04 1,1.71 2,2.36 l 0,0 c 0.04,0.2 0.26,0.32 0.14,0.59 l 0,0 c 0.31,0.24 0.42,0.56 0.83,0.77 l 0,0 c 0.3,0.76 0.83,1.43 1.35,2.1 l 0,0 c 1.26,1.08 2.54,2.13 3.85,3.16 l 0,0 c 0.09,0 0.18,0.02 0.25,0 l 0,0 c 0.2,0.34 0.62,0.86 1.18,0.76 l 0,0 c 0.93,0.72 1.8,1.68 3.07,2.24 l 0,0 c 0.79,0.34 1.72,0.48 2.2,1.17 l 0,0 c 0.04,-0.04 0.12,-0.01 0.2,0.01 l 0,0 c 0.09,0.03 0.17,0.06 0.21,0 l 0,0 c 0.8,0.94 2.37,1.04 3.75,1.45 l 0,0 c 0.18,0.04 0.03,0.23 0.16,0.3 l 0,0 c 0.63,0.15 1.04,0.66 1.41,0.89 l 0,0 c 0.13,0.08 0.32,0.06 0.43,0.14 l 0,0 c 0.07,0.06 0.1,0.24 0.17,0.3 l 0,0 c 0.61,0.49 1.51,0.76 1.97,1.45 l 0,0 c 1.15,0.42 1.95,1.23 2.96,1.54 l 0,0 c 0.38,0.72 1.83,0.8 2.49,1.51 l 0,0 c 1.41,0.57 2.93,1.22 4.15,2.06 l 0,0 c 0.14,0.1 0.21,0.28 0.36,0.37 l 0,0 c 0.92,0.52 2.1,0.67 2.69,1.51 l 0,0 c 0.2,0 0.46,0.1 0.65,0.1 l 0,0 c 0.04,0.4 0.63,0.72 1.18,0.76 l 0,0 c 0.32,0.26 0.68,0.5 1.05,0.74 l 0,0 c 13.67,5.25 28.62,8.12 44.28,8.04 l 0,0 c 32.05,-0.15 61.08,-12.59 82.04,-32.62 l 0,0 c 4.08,-3.89 7.84,-8.07 11.28,-12.51 l 0,0 c -0.6,0.72 -1.23,1.43 -1.9,2.13 l 0,0 c -0.12,0.7 -1.22,1.08 -1.32,1.79 l 0,0 c -0.18,0.14 -0.18,0.14 -0.39,0.2 l 0,0 c -0.92,1.04 -1.96,2.28 -3.24,3.26 l 0,0 c -0.46,0.36 -0.85,1.04 -1.26,1.4 l 0,0 c -0.16,0.13 -0.38,0.18 -0.53,0.32 l 0,0 c -0.12,0.12 -0.11,0.29 -0.22,0.42 l 0,0 c -0.7,0.87 -1.96,1.25 -2.45,2.24 l 0,0 c -0.33,0.14 -0.58,0.31 -0.66,0.53 l 0,0 c -0.13,0.02 -0.28,0.08 -0.4,0.08 l 0,0 c -1.1,1.26 -2.76,2.15 -3.71,3.3 l 0,0 c -0.09,0.08 -0.14,0.06 -0.19,0.04 l 0,0 c -0.04,-0.02 -0.09,-0.03 -0.15,0.01 l 0,0 c -1.1,1.16 -2.75,1.84 -3.64,2.96 l 0,0 c -0.2,0.09 -0.38,0.14 -0.54,0.16 l 0,0 c -0.18,0.07 -0.1,0.23 -0.27,0.32 l 0,0 c -1.26,0.49 -1.83,1.51 -2.88,2.02 l 0,0 c -0.64,0.32 -1.53,0.36 -1.84,0.99 l 0,0 c -0.87,0.63 -2,0.84 -2.81,1.43 l 0,0 c -0.32,0.24 -0.55,0.63 -0.88,0.82 l 0,0 c -0.2,0.12 -0.49,0.12 -0.69,0.23 l 0,0 c -0.17,0.1 -0.24,0.36 -0.44,0.47 l 0,0 c -0.4,0.23 -1.38,0.01 -1.55,0.73 l 0,0 c -0.29,0.02 -0.56,0.01 -0.83,0 l 0,0 c -0.48,-0.01 -0.95,-0.02 -1.41,0.08 l 0,0 c -0.65,0.36 -1.11,1.09 -1.84,1.37 l 0,0 c -0.3,0.11 -0.64,0.03 -0.97,0.17 l 0,0 c -0.3,0.14 -0.63,0.27 -1.03,0.4 l 0,0 c -0.34,0.11 -0.54,0.35 -0.81,0.47 l 0,0 c -0.07,0.04 -0.16,0.04 -0.25,0.03 l 0,0 c -0.08,0 -0.16,0 -0.22,0.02 l 0,0 c -0.61,0.23 -1.25,0.78 -1.98,1 l 0,0 c -0.48,0.14 -1,0.23 -1.5,0.33 l 0,0 c -0.16,0.09 -0.21,0.22 -0.42,0.28 l 0,0 c -0.52,0 -1.41,0.17 -1.74,0.7 l 0,0 c -0.5,0.1 -1.48,0.35 -1.97,0.88 l 0,0 c -0.34,-0.04 -0.62,0.26 -1.01,0.33 l 0,0 c -0.04,0 -0.09,0 -0.14,-0.01 l 0,0 c -0.06,-0.01 -0.14,-0.02 -0.18,-0.01 l 0,0 c -0.61,0.14 -1.12,0.59 -1.67,0.72 l 0,0 c -0.14,0.04 -0.3,0.01 -0.45,-0.02 l 0,0 c -0.15,-0.03 -0.3,-0.06 -0.44,-0.03 l 0,0 c -0.74,0.17 -1.39,0.65 -2.19,0.68 l 0,0 c -0.12,0.1 -0.22,0.2 -0.34,0.31 l 0,0 c -0.94,0.16 -2.1,0.52 -3.08,0.51 l 0,0 c -0.42,0.47 -0.91,0.46 -1.35,0.38 l 0,0 c -0.15,-0.34 0.28,-0.83 0.68,-0.73 l 0,0 c 0.36,-0.43 0.79,-0.58 1.26,-0.58 l 0,0 c 0.17,-0.12 0.27,-0.27 0.41,-0.39 l 0,0 c 0.63,0.05 1.29,-0.31 1.94,-0.43 l 0,0 c 0.08,-0.01 0.16,0 0.24,0 l 0,0 c 0.09,0.01 0.18,0.02 0.26,0 l 0,0 c 0.35,-0.11 0.67,-0.4 1.1,-0.63 l 0,0 c 1.04,-0.53 2.46,-0.71 3.27,-1.23 l 0,0 c 1.26,-0.8 3.45,-1.26 4.77,-2.43 l 0,0 c 1.17,-0.14 2.05,-0.9 3.27,-1.48 l 0,0 c 0.23,-0.04 0.04,-0.2 0.17,-0.28 l 0,0 c 0.83,0.11 1.62,-0.67 2.56,-1.17 l 0,0 c 0.14,-0.08 0.38,-0.12 0.52,-0.2 l 0,0 c 0.43,-0.28 0.74,-0.73 1.13,-0.94 l 0,0 c 0.35,-0.2 0.74,-0.19 1.03,-0.41 l 0,0 c 0.14,-0.1 0.19,-0.32 0.34,-0.42 l 0,0 c 0.31,-0.22 0.66,-0.22 0.99,-0.38 l 0,0 c 0.21,-0.11 0.33,-0.33 0.52,-0.45 l 0,0 c 0.34,-0.22 0.68,-0.25 0.98,-0.5 l 0,0 c 0.24,-0.21 0.39,-0.52 0.69,-0.73 l 0,0 c 1.08,-0.76 2.43,-1.19 3.24,-2.26 l 0,0 c 0.16,-0.07 0.34,-0.22 0.47,-0.18 l 0,0 c 0.13,-0.12 0.25,-0.24 0.29,-0.4 l 0,0 c 0.62,-0.07 0.75,-0.8 1.36,-0.87 l 0,0 c 2.19,-1.71 4.01,-3.73 6.53,-5.42 l 0,0 c 0.16,-0.14 0.14,-0.33 0.32,-0.47 l 0,0 c 1.23,-0.56 1.49,-1.79 2.77,-2.47 l 0,0 c 0.2,-0.13 0.11,-0.34 0.25,-0.5 l 0,0 c 0.62,-0.23 0.87,-0.8 1.2,-1.17 l 0,0 c 0.41,-0.48 1,-0.81 1.35,-1.25 l 0,0 c 0.12,-0.14 0.18,-0.37 0.29,-0.52 l 0,0 c 0.26,-0.31 0.64,-0.5 0.88,-0.81 l 0,0 c 0.3,-0.4 0.39,-0.98 0.96,-1.17 l 0,0 c 0.01,-0.56 0.83,-0.85 0.53,-1.51 l 0,0 c 0.4,-0.46 0.81,-0.88 1.35,-1.37 l 0,0 c -0.1,-0.71 1.17,-0.99 1.12,-1.69 l 0,0 c 0.12,-0.04 0.23,-0.04 0.35,-0.05 l 0,0 c 0.13,-0.38 0.47,-0.69 0.78,-1.02 l 0,0 c 0.15,-0.49 0.64,-0.68 0.98,-0.99 l 0,0 c 1.01,-0.93 1.52,-2.23 2.47,-3.18 l 0,0 c 0.13,-0.11 -0.07,-0.32 0.02,-0.44 l 0,0 c 0.15,-0.05 0.32,-0.12 0.49,-0.19 l 0,0 c -0.02,-0.18 -0.04,-0.37 -0.07,-0.58 l 0,0 c -0.45,0.14 -0.04,0.56 -0.41,0.73 l 0,0 c -0.25,-0.54 0.04,-1.25 0.51,-1.69 l 0,0 c -0.04,-0.19 0,-0.37 -0.1,-0.59 l 0,0 c 0.18,-0.23 0.37,-0.45 0.4,-0.72 l 0,0 c -0.14,-0.08 -0.27,-0.03 -0.41,0.03 l 0,0 c -0.12,0.05 -0.25,0.1 -0.39,0.05 l 0,0 c -0.2,0.1 -0.1,0.31 -0.23,0.44 l 0,0 c -0.96,0.43 -1.32,1.2 -1.67,1.95 l 0,0 c -1.19,0.82 -2.08,2.1 -2.85,3.2 l 0,0 c -1.04,0.61 -1.79,1.56 -2.38,2.44 l 0,0 c -0.35,0.18 -0.7,0.23 -0.95,0.55 l 0,0 c -0.07,0.1 -0.04,0.3 -0.13,0.39 l 0,0 c -0.27,0.26 -0.66,0.23 -0.85,0.62 l 0,0 c -0.39,0.03 -0.59,0.25 -1.01,0.32 l 0,0 c -0.77,0.74 -1.93,1.32 -2.85,2.04 l 0,0 c -0.16,0.4 -0.61,0.54 -0.87,0.82 l 0,0 c -0.37,0.41 -0.46,0.88 -0.87,1.22 l 0,0 c -0.1,0.08 -0.27,0.1 -0.36,0.18 l 0,0 c -0.29,0.29 -0.42,0.61 -0.69,0.81 l 0,0 c -0.28,0.2 -0.68,0.15 -1.03,0.39 l 0,0 c -0.28,0.19 -0.38,0.53 -0.59,0.75 l 0,0 c -0.38,0.01 -0.55,0.21 -0.64,0.53 l 0,0 c -0.49,-0.16 -0.9,0.53 -1.57,0.86 l 0,0 c -0.11,0.05 -0.39,0.11 -0.44,0.16 l 0,0 c -0.42,0.36 -0.28,1.07 -0.59,1.39 l 0,0 c -1.1,0.01 -1.26,1.71 -2.39,1.29 l 0,0 c 0,0.48 -0.62,0.3 -0.92,0.47 l 0,0 c -0.21,0.12 -0.25,0.35 -0.49,0.44 l 0,0 c -0.14,0.05 -0.28,0.04 -0.42,0.02 l 0,0 c -0.17,-0.01 -0.35,-0.03 -0.51,0.06 l 0,0 c -0.36,0.19 -0.32,0.46 -0.64,0.78 l 0,0 c -0.84,-0.11 -2.37,0.33 -2.42,1.36 l 0,0 c -0.26,0.05 -0.62,0.02 -0.82,0.28 l 0,0 c -0.35,-0.24 -0.81,-0.14 -1.27,-0.05 l 0,0 c -0.29,0.06 -0.59,0.13 -0.85,0.09 l 0,0 c -0.25,0.34 -0.77,0.71 -1.06,0.21 l 0,0 c -0.8,0.03 -1.76,0.57 -2.42,0.2 l 0,0 c -2.58,0.73 -4.92,2.39 -7.53,3.04 l 0,0 c -0.14,-0.71 -0.42,-1.59 -0.2,-2.29 l 0,0 c 0.09,-0.28 0.35,-0.57 0.45,-0.89 l 0,0 c 0.15,-0.42 0.15,-0.97 0.33,-1.26 l 0,0 c 0.24,-0.38 0.79,-0.54 1,-0.96 l 0,0 c -0.12,-0.55 0.39,-0.58 0.28,-0.98 l 0,0 c -0.28,-0.96 -3.07,0.37 -2.34,1.5 l 0,0 c 0.21,0.32 0.51,0.16 0.78,0.52 l 0,0 c -0.25,0.9 -0.67,1.73 -1.17,2.54 l 0,0 c -0.74,0.34 -0.66,1 -1.21,1.33 l 0,0 c -0.31,0.18 -1.05,0.03 -1.11,0.5 l 0,0 c -0.13,0.92 1.65,1.18 1.21,2.11 l 0,0 c -0.13,0.06 -0.24,0.06 -0.34,0.05 l 0,0 c -0.1,-0.01 -0.21,-0.02 -0.33,0.04 l 0,0 c -0.12,-0.16 -0.09,-0.26 -0.13,-0.39 l 0,0 c -0.84,-0.61 -1.75,-0.98 -2.8,-0.91 l 0,0 c -0.11,-0.2 -0.2,-0.27 -0.39,-0.51 l 0,0 c -0.23,0.1 -0.01,0.34 -0.07,0.49 l 0,0 c -0.31,0.22 -0.6,0.44 -0.75,0.7 l 0,0 c -0.23,0.05 -0.45,0.05 -0.72,0.24 l 0,0 c -1.3,-0.46 -2.84,-0.16 -4.17,-0.54 l 0,0 c -0.43,-0.48 -0.68,-1.75 -1.35,-1.39 l 0,0 c -0.37,0.2 -0.25,0.8 -0.02,1.37 l 0,0 c -1.31,-0.23 -3.61,0.84 -4.35,2.15 l 0,0 c 0,-0.29 -0.09,-0.35 -0.31,-0.49 l 0,0 c -0.17,0.07 -0.22,0.18 -0.31,0.28 l 0,0 c 0.09,0.34 0.32,0.24 0.47,0.41 l 0,0 c -0.07,0.12 -0.22,0.22 -0.13,0.39 l 0,0 c -0.29,0 -0.39,0.08 -0.77,0.27 l 0,0 c -0.15,0.08 0.06,0.28 0,0.38 l 0,0 c -0.25,0.17 -0.66,0.11 -0.9,0.4 l 0,0 c -0.1,0.24 0.03,0.35 0.19,0.62 l 0,0 c -0.07,0.28 -0.18,0.54 -0.46,0.76 l 0,0 c -0.14,0.42 -0.07,0.92 -0.14,1.37 l 0,0 c -0.57,0.43 -0.8,0.97 -0.97,1.53 l 0,0 c -0.65,0.56 -0.85,0.68 -1.74,1.02 l 0,0 c -0.05,-0.1 -0.11,-0.21 -0.16,-0.31 l 0,0 c -0.11,-0.01 -0.19,0.04 -0.27,0.09 l 0,0 c -0.09,0.06 -0.18,0.13 -0.3,0.07 l 0,0 c -0.13,-0.32 0.15,-0.5 -0.11,-0.85 l 0,0 c -0.45,0.03 -0.34,0.52 -0.58,0.75 l 0,0 c -0.28,-0.18 -0.6,-0.06 -0.92,0.06 l 0,0 c -0.4,0.14 -0.79,0.28 -1.07,-0.14 l 0,0 c -0.22,0.05 -0.08,0.21 -0.26,0.25 l 0,0 c -0.14,-0.2 -0.41,-0.02 -0.57,-0.22 l 0,0 c -0.15,0.15 -0.46,0.1 -0.46,0.24 l 0,0 c -0.84,-0.15 -1.76,-0.06 -2.77,0.3 l 0,0 c -0.14,-0.14 -0.33,-0.14 -0.47,-0.28 l 0,0 c -0.53,0.18 -0.98,0.11 -1.43,0.04 l 0,0 c -0.32,-0.04 -0.63,-0.1 -0.97,-0.06 l 0,0 c -0.11,-0.14 0.09,-0.19 -0.06,-0.36 l 0,0 c -0.42,0.14 -0.72,0.52 -1.16,0.27 l 0,0 c 0.01,-0.19 0.3,-0.3 0.33,-0.49 l 0,0 c -0.38,-0.32 -0.58,0.37 -0.7,0.55 l 0,0 c -1.22,0.57 -2.1,0.12 -3.3,0.64 l 0,0 c -0.44,-0.29 -0.91,-0.47 -1.5,-0.28 l 0,0 c -0.4,-0.27 -0.89,-0.24 -1.43,-0.12 l 0,0 c -0.71,-0.21 -1.5,-0.2 -2.25,-0.34 l 0,0 c -0.06,-0.14 -0.12,-0.26 -0.21,-0.28 l 0,0 c -1.2,-0.5 -2.41,-0.42 -3.85,-0.31 l 0,0 c -0.11,-0.19 -0.32,-0.09 -0.41,-0.31 l 0,0 c -0.11,0.08 -0.15,0.18 -0.34,0.23 l 0,0 c -0.96,-0.59 -2.17,-0.47 -3.34,-0.44 l 0,0 c -0.05,-0.13 -0.12,-0.25 -0.21,-0.28 l 0,0 c -1.74,-0.32 -3.48,-0.65 -5.09,-1.36 l 0,0 c -0.18,0.13 -0.27,0.02 -0.44,0.15 l 0,0 c -0.2,-0.19 -0.46,-0.16 -0.68,-0.3 l 0,0 c -0.98,0.25 -1.94,0.12 -3.02,0.3 l 0,0 c -0.13,-0.1 -0.28,-0.1 -0.39,-0.25 l 0,0 c -0.21,0.06 -0.21,0.19 -0.39,0.26 l 0,0 c -0.09,-0.18 -0.18,-0.14 -0.3,-0.1 l 0,0 c -0.06,0.02 -0.13,0.04 -0.2,0.03 l 0,0 c -0.39,-0.12 -0.67,-0.56 -1.01,-0.72 l 0,0 c -0.49,-0.23 -1.16,0.06 -1.79,-0.33 l 0,0 c -0.31,-0.18 -0.67,-0.64 -1.14,-0.19 l 0,0 c -0.38,-0.27 -0.67,-0.84 -1.17,-0.77 l 0,0 c -0.32,-0.47 -0.59,-1.08 -1.06,-1.08 l 0,0 c -0.07,-0.12 -0.13,-0.24 -0.11,-0.33 l 0,0 c -0.27,0.06 -0.34,-0.14 -0.59,-0.28 l 0,0 c -0.63,-0.33 -1.54,0 -2.12,-0.6 l 0,0 c -0.17,0.07 -0.33,0.13 -0.47,0.1 l 0,0 c -0.44,-0.05 -0.86,-0.17 -1.22,-0.48 l 0,0 c -0.93,0.17 -1.73,-0.08 -2.38,-0.73 l 0,0 c -0.58,-0.14 -1.08,-0.53 -1.61,-0.87 l 0,0 c 0,-0.09 -0.19,-0.23 -0.08,-0.28 l 0,0 c -0.65,-0.1 -1.08,-0.9 -1.79,-0.84 l 0,0 c -0.38,-0.57 -0.9,-0.76 -1.3,-1.28 l 0,0 c -0.74,0.16 -1.3,-0.23 -1.86,-0.62 l 0,0 c -0.53,-0.37 -1.07,-0.74 -1.76,-0.64 l 0,0 c -0.15,-0.21 -0.37,-0.2 -0.57,-0.23 l 0,0 c -0.07,-0.38 -0.28,-0.55 -0.42,-0.95 l 0,0 c -0.37,-0.23 -0.82,-0.2 -1.19,-0.43 l 0,0 c -0.3,-0.71 -1.22,-0.57 -1.66,-1.1 l 0,0 c -0.1,-0.12 -0.1,-0.3 -0.21,-0.41 l 0,0 c -0.33,-0.37 -0.77,-0.62 -1.17,-0.9 l 0,0 c -0.12,-0.16 -0.06,-0.28 -0.08,-0.42 l 0,0 c -1.16,-0.05 -1.8,-1.65 -2.78,-2.28 l 0,0 c 0.02,-0.25 -0.25,-0.6 -0.16,-0.83 l 0,0 c -0.33,-0.17 -0.29,-0.52 -0.47,-0.8 l 0,0 c -0.29,-0.48 -0.82,-0.83 -1.04,-1.28 l 0,0 c -0.14,-0.31 -0.1,-0.73 -0.23,-0.98 l 0,0 c -0.41,-0.74 -1.39,-1.12 -1.73,-1.72 l 0,0 c -0.22,-0.38 -0.11,-0.78 -0.29,-1.08 l 0,0 c -0.14,-0.23 -0.47,-0.31 -0.67,-0.56 l 0,0 c -0.18,-0.23 -0.17,-0.63 -0.52,-0.78 l 0,0 c -0.02,-0.35 -0.34,-1.11 -0.66,-1.54 l 0,0 c -0.29,-0.39 -0.91,-0.88 -1.32,-1.33 l 0,0 c -0.56,-0.61 -0.84,-1.31 -1.28,-2.01 l 0,0 c -0.45,-0.69 -1.33,-1.16 -1.87,-1.9 l 0,0 c -0.16,-0.21 -0.23,-0.56 -0.39,-0.77 l 0,0 c -0.12,-0.14 -0.34,-0.18 -0.41,-0.31 l 0,0 c -0.16,-0.24 -0.12,-0.56 -0.27,-0.77 l 0,0 c -0.16,-0.24 -0.54,-0.44 -0.78,-0.77 l 0,0 c -0.42,-0.58 -0.78,-1.67 -1.44,-1.8 l 0,0 c -0.25,-0.51 -0.53,-0.8 -0.84,-1.25 l 0,0 c -0.22,-0.35 -0.65,-0.5 -0.76,-0.84 l 0,0 c -0.06,-0.21 0.09,-0.48 0.05,-0.68 l 0,0 c -0.18,-0.8 -0.91,-1.87 -1.36,-2.67 l 0,0 c -0.18,-1.6 -1.82,-3.17 -2.35,-4.63 l 0,0 c 0.16,-0.98 -0.74,-2.31 -1.65,-2.6 l 0,0 c -0.53,-1.12 -1.44,-1.95 -1.65,-3.11 l 0,0 c -0.85,-1.34 -0.43,-2.37 -1.44,-3.61 l 0,0 c -0.05,-0.18 0.04,-0.33 0,-0.52 l 0,0 c -1.56,-3.1 -1.49,-5.67 -2.49,-8.58 l 0,0 c -0.09,-0.17 -0.02,-0.29 -0.02,-0.44 l 0,0 c -0.4,-0.24 -0.53,-0.88 -0.2,-1.13 l 0,0 c -0.34,-0.56 -0.15,-1.12 -0.37,-1.5 l 0,0 c 0.26,-0.52 0.46,-1.05 0.22,-1.74 l 0,0 c 0.15,-0.37 -0.1,-1.09 -0.53,-1.28 l 0,0 c -0.12,-0.17 0.12,-0.22 0,-0.39 l 0,0 c -0.89,-0.93 -0.46,-2.18 -0.62,-3.26 l 0,0 c -0.53,-0.71 -0.4,-1.54 -0.56,-2.24 l 0,0 c -0.05,-0.21 -0.2,-0.37 -0.23,-0.59 l 0,0 c -0.04,-0.26 0.06,-0.56 0.02,-0.85 l 0,0 c -0.09,-0.58 -0.3,-0.94 -0.01,-1.42 l 0,0 c -0.12,-0.21 -0.08,-0.37 -0.23,-0.6 l 0,0 c 0.37,-1.29 -0.36,-2.95 0.13,-4.21 l 0,0 c -0.48,-1.14 0.24,-1.89 0.6,-2.77 l 0,0 c -0.52,-1.26 0.63,-1.97 0.1,-3.23 l 0,0 c 0,-0.24 0.16,-0.44 0.26,-0.65 l 0,0 c -0.03,-0.14 -0.04,-0.28 -0.16,-0.44 l 0,0 c 1.02,-1.83 -0.45,-4.47 0.55,-6.31 l 0,0 c -0.14,-0.19 -0.09,-0.33 -0.18,-0.49 l 0,0 c 0.28,-0.3 0.09,-0.75 0.3,-1.07 l 0,0 c -0.36,-0.99 0.2,-1.69 0.11,-2.58 l 0,0 c 0.14,-0.04 0.07,-0.15 0.23,-0.18 l 0,0 c 0.03,-1.51 0.24,-2.96 0.56,-4.37 l 0,0 c -0.18,-0.3 -0.04,-0.45 -0.26,-0.65 l 0,0 c 0.45,-0.47 0.24,-1.15 0.58,-1.66 l 0,0 c -0.04,-0.09 -0.09,-0.17 -0.13,-0.26 l 0,0 c 0.44,-0.65 0.52,-1.41 0.51,-2.21 l 0,0 c 0.33,-0.52 0.41,-0.89 0.92,-1.37 l 0,0 c 0.31,-0.77 0.48,-1.59 0.96,-2.31 l 0,0 c 0.04,-0.27 0.1,-0.54 0.18,-0.8 l 0,0 c -0.08,-0.16 -0.16,-0.31 -0.24,-0.47 l 0,0 c 0.19,-0.14 0.23,-0.33 0.41,-0.46 l 0,0 c -0.18,-0.92 0.58,-1.54 0.45,-2.44 l 0,0 c 0.49,-0.43 0.26,-1.08 0.33,-1.65 l 0,0 c 0.04,-0.08 0.1,-0.14 0.23,-0.18 l 0,0 c 0.46,-1.59 1.24,-3.06 1.73,-4.63 l 0,0 c 0.31,-0.13 0.32,-0.51 0.54,-0.74 l 0,0 c 0.07,-0.06 0.25,-0.07 0.31,-0.15 l 0,0 c 0.16,-0.22 0.18,-0.51 0.31,-0.8 l 0,0 c 0.46,-0.99 1.36,-1.69 1.37,-2.77 l 0,0 c 0.16,-0.12 0.18,-0.29 0.32,-0.42 l 0,0 c 0.17,-0.23 -0.03,-0.58 0.33,-0.75 l 0,0 0,-0.52 c 0.41,-0.42 0.76,-0.84 0.64,-1.43 l 0,0 c 0.59,-0.77 0.98,-1.6 1.04,-2.54 l 0,0 c 0.18,-0.14 0.27,-0.29 0.43,-0.42 l 0,0 c 0.31,-0.51 0.77,-0.84 1.03,-1.42 l 0,0 c 0.09,-0.22 0.04,-0.51 0.15,-0.73 l 0,0 c 0.18,-0.34 0.5,-0.51 0.67,-0.86 l 0,0 c 0.26,-0.54 0.5,-0.97 0.45,-1.53 l 0,0 c 0.98,-0.8 1.01,-1.9 2.24,-2.62 l 0,0 c 0.14,-0.16 0.2,-0.34 0.33,-0.5 l 0,0 c 0.1,-0.09 0.17,-0.06 0.23,-0.03 l 0,0 c 0.06,0.03 0.12,0.05 0.21,0 l 0,0 c 0.19,-0.06 0.03,-0.24 0.23,-0.31 l 0,0 c -0.08,-0.22 -0.22,-0.21 -0.29,-0.44 l 0,0 c 0.48,-0.35 0.62,-1.02 1.22,-1.19 l 0,0 c 0.85,-1.26 1.84,-2.49 2.68,-3.76 l 0,0 c 0.11,-0.15 0.08,-0.35 0.13,-0.51 l 0,0 c 0.41,-0.26 0.84,-0.5 0.93,-0.86 l 0,0 c 0.45,-0.43 1.47,-0.96 1.56,-1.64 l 0,0 c 0.11,-0.1 0.2,-0.19 0.39,-0.26 l 0,0 c 0.41,-0.72 0.59,-1.44 1.33,-1.97 l 0,0 c 0.13,-0.12 0.18,-0.28 0.15,-0.47 l 0,0 c 1.19,-0.74 1.27,-1.85 2.51,-2.58 l 0,0 C 77.31,53 78.38,52.74 78.43,51.9 l 0,0 c 0.38,-0.14 0.69,-0.62 0.88,-0.96 l 0,0 c 0.69,-0.39 1.71,-1.01 2,-1.67 l 0,0 c 0.34,-0.08 0.66,-0.1 1.01,-0.18 l 0,0 c 0.3,-0.6 1.06,-1.09 1.59,-1.72 l 0,0 c 0.22,-0.26 0.16,-0.32 0.59,-0.62 l 0,0 c 0.44,-0.32 0.67,-0.71 1.18,-0.99 l 0,0 c 0.41,-0.22 0.99,-0.89 1.57,-1.26 l 0,0 c 0.56,-0.35 1.94,-0.78 2.26,-1.4 l 0,0 c 1.1,-0.48 1.77,-1.33 2.49,-1.98 l 0,0 c 0.33,-0.07 0.48,-0.09 0.59,-0.36 l 0,0 c 0.16,-0.09 0.28,-0.06 0.42,-0.08 l 0,0 c 0.54,-0.79 2.04,-1.06 2.36,-1.98 l 0,0 c 0.88,-0.24 1.52,-1 2.25,-1.46 l 0,0 c 0.17,-0.11 0.39,-0.11 0.54,-0.21 l 0,0 c 0.22,-0.15 0.39,-0.53 0.79,-0.73 l 0,0 c 0.76,-0.39 1.66,-0.69 2.52,-1.15 l 0,0 c 0.09,-0.15 0.25,-0.26 0.31,-0.42 l 0,0 c 0.79,-0.26 1.3,-0.79 1.98,-1.07 l 0,0 c 0.98,-0.42 2.03,-0.6 3.04,-1.02 l 0,0 c 0.74,-0.33 1.37,-0.92 2.11,-1.21 l 0,0 c 0.21,-0.08 0.47,-0.03 0.72,-0.11 l 0,0 c 0.24,-0.07 0.48,-0.29 0.73,-0.36 l 0,0 c 0.32,-0.1 0.73,-0.06 1.08,-0.16 l 0,0 c 0.3,-0.09 0.59,-0.3 0.85,-0.36 l 0,0 c 0.07,-0.01 0.15,0 0.23,0.01 l 0,0 c 0.08,0.01 0.16,0.03 0.23,0.01 l 0,0 c 0.37,-0.08 0.67,-0.37 1.01,-0.45 l 0,0 c 0.56,-0.13 1.54,-0.46 2.27,-0.64 l 0,0 c 0.1,-0.02 0.18,-0.01 0.27,0 l 0,0 c 0.08,0.01 0.15,0.02 0.24,0 l 0,0 c 0.7,-0.13 1.42,-0.62 2.12,-0.17 l 0,0 c 0.14,-0.07 0.28,-0.14 0.41,-0.21 l 0,0 c 0.56,0.03 1.11,-0.19 1.7,-0.21 l 0,0 c 0.08,0 0.16,0.03 0.25,0.05 l 0,0 c 0.1,0.03 0.21,0.06 0.32,0.04 l 0,0 c 0.21,-0.03 0.41,-0.19 0.6,-0.23 l 0,0 c 0.1,-0.02 0.22,-0.01 0.33,0 l 0,0 c 0.11,0.01 0.22,0.02 0.32,0 l 0,0 c 0.28,-0.06 0.52,-0.27 0.8,-0.34 l 0,0 c 0.63,-0.15 1.35,0.05 1.88,-0.38 l 0,0 c 0.62,0.01 1.27,-0.07 1.93,-0.16 l 0,0 c 0.92,-0.13 1.84,-0.25 2.67,-0.1 l 0,0 c 1.07,-0.16 2.21,-0.43 3.35,-0.8 l 0,0 c 0.42,-0.14 0.74,-0.38 1.13,-0.45 l 0,0 c 0.37,-0.07 1.1,-0.09 1.6,-0.3 l 0,0 c 0.79,-0.33 1.47,-0.89 2.24,-1.07 l 0,0 c 0.09,-0.02 0.18,0 0.28,0.02 l 0,0 c 0.09,0.02 0.17,0.04 0.26,0.03 l 0,0 c 0.25,-0.05 0.49,-0.27 0.8,-0.34 l 0,0 c 0.35,-0.09 0.79,0 1.05,-0.09 l 0,0 c 0.5,-0.16 0.81,-0.46 1.27,-0.44 l 0,0 c 0.36,0.01 0.72,0.08 1.14,0.07 l 0,0 c 0.34,-0.01 0.67,0 1,0.01 l 0,0 c 0.6,0.02 1.18,0.04 1.82,-0.08 l 0,0 c 0.5,0.2 1.09,0.15 1.68,0.09 l 0,0 c 0.64,-0.06 1.28,-0.12 1.81,0.14 l 0,0 c 0.14,-0.1 0.24,-0.09 0.34,-0.08 l 0,0 c 0.1,0 0.21,0.01 0.35,-0.09 l 0,0 c 0.88,0.5 2.02,0.23 2.92,0.65 l 0,0 c 0.27,-0.09 0.5,-0.06 0.73,-0.02 l 0,0 c 0.28,0.04 0.55,0.09 0.9,-0.09 l 0,0 c 0.55,0.19 1.15,0.17 1.79,0.07 l 0,0 c 0.32,0.23 0.73,0.2 1.06,0.43 l 0,0 c 1.86,-0.1 3.35,0.96 5.04,1.39 l 0,0 c 1.04,0.71 2.27,0.85 3.37,1.39 l 0,0 c 0.76,-0.04 1.36,0.41 2.1,0.43 l 0,0 c 0.45,0.45 1.01,0.58 1.53,0.84 l 0,0 c 0.7,0.78 1.62,0.94 2.34,1.66 l 0,0 c 1.28,0.56 2.29,1.91 3.63,2.29 l 0,0 c 0.42,0.51 0.97,0.65 1.51,0.8 l 0,0 c 0.84,0.62 1.77,0.98 2.7,1.36 l 0,0 c 0.52,0.37 0.97,1 1.56,1.15 l 0,0 c 0.24,0.35 0.48,0.7 0.83,0.74 l 0,0 c 1.07,1.24 2.92,0.81 3.69,2.53 l 0,0 c 0.84,0.58 1.53,1.65 2.47,1.92 l 0,0 c 0.33,0.48 0.72,0.78 1.17,0.9 l 0,0 c 0.47,0.74 1.03,1.22 1.62,1.64 l 0,0 c 0.07,0.14 0.14,0.28 0.21,0.41 l 0,0 c 1.24,1.24 2.48,2.5 3.82,3.44 l 0,0 c 0.59,1.74 2.28,1.87 2.9,3.52 l 0,0 c 0.16,0.12 0.33,0.23 0.49,0.33 l 0,0 c 0.1,0.46 0.46,0.52 0.7,0.75 l 0,0 c 0.69,0.67 1.21,1.54 1.85,2.36 l 0,0 c 0.49,0.63 1.18,1.09 1.69,1.67 l 0,0 c 1.24,1.42 2.27,3.02 3.54,4.29 l 0,0 c 0.8,1.65 2.14,3.04 2.9,4.68 l 0,0 c 0.09,0.19 0.1,0.37 0.21,0.54 l 0,0 c 0.09,0.15 0.28,0.22 0.39,0.39 l 0,0 c 0.2,0.3 0.22,0.77 0.42,1.08 l 0,0 c 0.15,0.24 0.54,0.49 0.73,0.93 l 0,0 c 0.21,0.47 0.11,0.94 0.4,1.41 l 0,0 c 0.56,0.94 1.23,2.16 1.68,3.29 l 0,0 c 0.13,0.34 0.15,0.69 0.37,0.98 l 0,0 c 0.21,0.28 0.47,0.53 0.68,0.95 l 0,0 c 0.38,0.8 0.8,1.46 1.33,2.24 l 0,0 c 0.5,0.72 1.07,1.65 1.36,2.42 l 0,0 c 0.06,0.15 0.02,0.33 0.11,0.47 l 0,0 c 0.29,0.51 0.94,0.95 1.17,1.8 l 0,0 c 0.1,0.36 -0.09,0.85 0.19,1.4 l 0,0 c 0.13,0.25 0.41,0.38 0.53,0.64 l 0,0 c 0.07,0.17 0.01,0.36 0.08,0.54 l 0,0 c 0.13,0.38 0.6,0.72 0.47,1.18 l 0,0 c 0.17,0.24 0.38,0.35 0.57,0.49 l 0,0 c -0.15,0.54 0.33,1.28 -0.02,1.75 l 0,0 c 0.52,0.11 0.69,1.24 1.18,1.41 l 0,0 c 0.08,0.53 0.04,1.24 0.25,1.88 l 0,0 c 0.05,0.17 0.22,0.34 0.26,0.51 l 0,0 c 0.06,0.23 -0.04,0.48 0.03,0.7 l 0,0 c 0.1,0.3 0.33,0.53 0.42,0.83 l 0,0 c 0.25,0.76 0.28,1.54 0.25,2.14 l 0,0 c 0.69,1.51 1.87,3.05 1.6,4.43 l 0,0 c 0.07,0.17 0.19,0.22 0.29,0.32 l 0,0 c -0.09,0.42 0.11,0.95 -0.02,1.36 l 0,0 c 0.74,1.25 0.69,2.65 1.26,3.76 l 0,0 c 0.08,0.16 0.22,0.29 0.28,0.44 l 0,0 c 0.23,0.56 0.21,1.28 0.43,1.85 l 0,0 c 0.05,0.14 0.22,0.25 0.26,0.39 l 0,0 c 0.2,0.68 0.09,1.83 0.02,2.58 l 0,0 c -0.03,0.25 -0.1,0.52 -0.08,0.75 l 0,0 c 0.05,0.31 0.26,0.6 0.27,0.9 l 0,0 c 0,0.38 -0.16,0.7 -0.1,1.08 l 0,0 c 0.06,0.3 0.22,0.58 0.32,0.88 l 0,0 c 0,1.48 -0.38,3.06 0.26,4.6 l 0,0 c -0.21,0.47 -0.02,1.08 0.06,1.65 l 0,0 c -0.3,2.03 -0.12,4.22 0.18,6.46 l 0,0 c -0.31,0.65 -0.42,1.34 -0.53,2.15 l 0,0 c -0.08,0.59 -0.06,1.07 -0.12,1.68 l 0,0 c -0.03,0.27 -0.15,0.47 -0.15,0.72 l 0,0 c 0.02,0.76 0.13,1.57 0.09,2.35 l 0,0 c 0,0.1 -0.16,0.2 -0.17,0.29 l 0,0 c -0.01,0.09 0.1,0.23 0.11,0.34 l 0,0 c 0,0.19 -0.13,0.4 -0.13,0.52 l 0,0 c 0,0.14 0.13,0.27 0.13,0.38 l 0,0 c 0.01,0.42 -0.31,0.67 -0.41,1.11 l 0,0 c -0.13,0.66 0,1.4 -0.53,1.9 l 0,0 c 0.21,1.31 -0.64,2.27 -0.52,3.56 l 0,0 c -0.08,0.19 -0.21,0.36 -0.31,0.54 l 0,0 c 0.27,1.42 -0.46,2.52 -0.82,3.73 l 0,0 c 0.07,0.13 0.14,0.27 0.21,0.41 l 0,0 c -0.04,0.22 -0.28,0.37 -0.05,0.67 l 0,0 c -0.32,0.72 -1.09,1.31 -0.97,2.18 l 0,0 c -0.08,0.07 -0.07,0.18 -0.2,0.23 l 0,0 c -0.06,0.48 0.03,1.01 -0.25,1.42 l 0,0 c 0.19,0.29 0.08,0.49 0.11,0.72 l 0,0 c -1.32,1.05 -0.68,2.73 -1.97,3.79 l 0,0 c -0.2,1.03 -0.83,2.02 -1.06,3.13 l 0,0 c -0.12,0.58 -0.67,1.13 -0.8,1.76 l 0,0 c 0.07,0.14 0.14,0.28 0.21,0.41 l 0,0 c -0.34,0.19 -0.6,0.41 -0.46,0.75 l 0,0 c -0.25,0.1 -0.39,0.25 -0.52,0.39 l 0,0 c 0.02,1.07 -1.33,1.91 -0.81,3 l 0,0 c -0.35,0.48 -0.99,0.74 -0.48,1.35 l 0,0 c 0.23,0.28 0.84,0.21 1.13,0.51 l 0,0 c 0.27,-0.5 0.71,-0.95 0.74,-1.53 l 0,0 c 0.38,-0.33 0.56,-0.72 0.74,-1.1 l 0,0 c -0.1,0.01 -0.19,0 -0.28,-0.04 l 0,0 c 0,-0.21 0.07,-0.38 0.1,-0.57 l 0,0 c -0.14,-0.19 -0.37,-0.1 -0.6,0 l 0,0 c -0.16,0.06 -0.33,0.13 -0.46,0.09 l 0,0 c 0.03,-0.62 1.12,-1.05 1.54,-1.3 l 0,0 c -0.15,0.33 0.14,0.68 0.21,1.04 l 0,0 c 0.03,-0.03 0.04,-0.07 0.08,-0.1 l 0,0 c -0.03,-0.24 -0.03,-0.48 -0.13,-0.74 l 0,0 c 0.07,-0.18 0.2,-0.34 0.22,-0.54 l 0,0 c 0.67,-0.36 0.91,-0.85 0.88,-1.44 l 0,0 c 0.79,-1.41 1.01,-3.01 1.92,-4.38 l 0,0 c 0.12,-0.47 0,-1.01 0.48,-1.36 l 0,0 c 0.28,-1.16 0.76,-2.25 1.14,-3.37 l 0,0 c 0.05,-0.11 -0.12,-0.28 -0.07,-0.39 l 0,0 c 0.27,-0.41 0.39,-0.95 0.51,-1.44 l 0,0 c 0.02,-0.09 0.18,-0.16 0.19,-0.22 l 0,0 c 0.04,-0.16 -0.05,-0.35 0,-0.5 l 0,0 c 0.07,-0.2 0.25,-0.37 0.32,-0.6 l 0,0 c 0.06,-0.21 0.02,-0.45 0.1,-0.67 l 0,0 c 0.13,-0.37 0.43,-0.69 0.51,-1.06 l 0,0 c 0.03,-0.14 -0.06,-0.34 -0.03,-0.54 l 0,0 c 0.04,-0.21 0.23,-0.44 0.24,-0.61 l 0,0 c 0.01,-0.18 -0.13,-0.38 -0.1,-0.57 l 0,0 c 0.05,-0.39 0.45,-0.76 0.27,-1.19 l 0,0 c 0.8,-0.88 0.37,-2.15 0.82,-3.14 l 0,0 c -0.02,-0.15 -0.03,-0.3 -0.13,-0.49 l 0,0 c 0.33,-0.44 0.3,-1.08 0.46,-1.65 l 0,0 c 0.07,-0.28 0.3,-0.54 0.31,-0.84 l 0,0 c 0,-0.17 -0.14,-0.28 -0.15,-0.41 l 0,0 c -0.03,-0.28 0.04,-0.8 0.14,-1.07 l 0,0 c 0.04,-0.12 0.2,-0.22 0.24,-0.37 l 0,0 c 0.1,-0.37 -0.04,-0.83 0.26,-1.19 l 0,0 c -0.1,-0.2 -0.07,-0.35 -0.23,-0.56 l 0,0 c 0.06,-0.45 0.43,-0.79 0.2,-1.34 l 0,0 c 0.17,-0.23 0.19,-0.51 0.44,-0.71 l 0,0 c 0.38,-1.56 0.89,-3.08 1.31,-4.63 l 0,0 c -0.04,-0.17 -0.14,-0.15 -0.2,-0.27 l 0,0 c -0.15,-0.98 0.24,-2.15 -0.12,-3.15 l 0,0 c -0.15,-0.44 -0.5,-0.86 -0.55,-1.33 l 0,0 c -0.04,-0.32 0.14,-0.97 0.18,-1.46 l 0,0 c 0.07,-0.75 0.55,-1.39 -0.09,-2.24 l 0,0 c 0.03,-0.33 0.35,-0.87 -0.14,-1.11 l 0,0 c 0.13,-0.53 -0.33,-1.26 -0.09,-1.75 l 0,0 c -0.01,-0.18 -0.09,-0.14 -0.18,-0.34 l 0,0 c 0.1,-1.24 -0.29,-2.64 -0.54,-4 l 0,0 c 0.48,-0.34 -0.12,-0.81 -0.26,-1.35 l 0,0 c -0.12,-0.48 0.18,-0.73 0.12,-1.12 l 0,0 c -0.15,-0.3 -0.3,-0.58 -0.5,-0.74 l 0,0 c 0.14,-0.56 0.18,-1.17 0.21,-1.78 l 0,0 c -0.61,-0.69 0.03,-1.47 -0.68,-2.19 l 0,0 c 0.15,-0.52 -0.03,-1.02 -0.26,-1.6 l 0,0 c -0.07,-0.18 0,-0.52 -0.08,-0.76 l 0,0 c -0.04,-0.15 -0.18,-0.3 -0.2,-0.4 l 0,0 c -0.09,-0.38 0.14,-0.83 -0.33,-1.26 l 0,0 c -0.06,-0.17 0.21,-0.26 0.14,-0.45 l 0,0 c -0.3,-0.8 -0.57,-1.58 -0.83,-2.61 l 0,0 c -0.16,-0.63 -0.13,-1.33 -0.33,-1.87 l 0,0 c -0.09,-0.26 -0.28,-0.45 -0.35,-0.69 l 0,0 c -0.22,-0.72 -0.14,-1.42 -0.41,-2.27 l 0,0 c -0.09,-0.16 -0.18,-0.29 -0.3,-0.34 l 0,0 c 0.22,-0.65 -0.49,-1.61 -0.44,-2.32 l 0,0 c -0.87,-1.58 -1.15,-3.3 -1.02,-4.68 l 0,0 c -0.37,-0.83 -0.87,-1.33 -0.87,-1.96 l 0,0 c -0.14,-0.5 -0.95,-0.93 -1.07,-1.38 l 0,0 c -0.1,-0.38 0.28,-0.7 0.44,-1.09 l 0,0 c 0.7,0.85 1.14,2.1 1.69,2.85 l 0,0 c -0.08,0.3 0.44,0.8 0.16,1.03 l 0,0 c 0.06,0.08 0.14,0.08 0.23,0.07 l 0,0 c 0.06,0 0.13,0 0.18,0.02 l 0,0 c 0.54,1.07 1.79,2.25 1.58,3.35 l 0,0 c 0.69,0.86 0.85,1.75 1.13,2.71 l 0,0 c 0.1,0.33 0.32,0.61 0.4,0.91 l 0,0 c 0.22,0.77 0.28,1.46 0.6,2.17 l 0,0 c 0.07,0.14 0.21,0.27 0.28,0.42 l 0,0 c 0.15,0.37 0.14,0.79 0.28,1.16 l 0,0 c 0.18,0.47 0.41,0.94 0.61,1.43 l 0,0 c 0.23,0.58 0.64,1.1 0.85,1.67 l 0,0 c 0.12,0.33 0.03,0.76 0.13,1.11 l 0,0 c 0.1,0.33 0.31,0.6 0.4,0.91 l 0,0 c 0.28,0.9 0.57,1.81 0.71,2.73 l 0,0 c 0.5,1.25 0.93,2.48 1.21,3.72 l 0,0 c 0.19,0.85 0.47,1.51 0.68,2.32 l 0,0 c 0.25,0.96 0.54,2.03 0.59,3.11 l 0,0 c 0,0.15 -0.11,0.27 -0.1,0.42 l 0,0 c 0.05,0.58 0.31,1.16 0.28,1.65 l 0,0 c -0.01,0.21 -0.16,0.44 -0.16,0.64 l 0,0 c -0.01,0.21 0.14,0.41 0.13,0.61 l 0,0 c -0.01,0.17 -0.16,0.31 -0.2,0.47 l 0,0 c -0.02,0.14 0.07,0.3 0.06,0.47 l 0,0 c -0.07,0.56 -0.41,0.95 -0.07,1.46 l 0,0 c -0.07,0.86 0.29,1.64 0.29,2.52 l 0,0 c 0,0.5 -0.24,1.02 -0.21,1.53 l 0,0 c 0.01,0.21 0.18,0.42 0.2,0.64 l 0,0 c 0.01,0.14 -0.11,0.28 -0.09,0.42 l 0,0 c 0.03,0.27 0.24,0.52 0.27,0.79 l 0,0 c 0.06,0.49 -0.15,0.92 -0.01,1.43 l 0,0 c 0.03,0.1 0.15,0.22 0.18,0.34 l 0,0 c 0.13,0.61 -0.03,1.24 0.14,1.85 l 0,0 c -0.07,0.14 -0.05,0.32 -0.22,0.42 l 0,0 c 0.02,0.14 0.08,0.28 0.07,0.4 l 0,0 c -0.27,0.86 0.06,1.91 -0.12,2.79 l 0,0 c -0.11,0.08 -0.18,0.16 -0.25,0.25 l 0,0 c 0.31,0.44 -0.1,0.65 0.1,1.07 l 0,0 c -0.04,0.08 -0.15,0.14 -0.2,0.23 l 0,0 c -0.07,1.43 -0.18,2.84 -0.39,4.22 l 0,0 c -0.47,0.34 -0.32,0.84 -0.41,1.39 l 0,0 c -0.11,0.68 -0.56,1.31 -0.51,1.92 l 0,0 c 0.02,0.22 0.18,0.42 0.2,0.64 l 0,0 c 0.03,0.35 -0.21,0.76 0.06,1.08 l 0,0 c -0.23,0.47 -0.04,0.97 -0.14,1.44 l 0,0 c -0.16,0.76 -0.69,1.45 -0.51,2.3 l 0,0 c -0.45,0.53 -0.48,1.21 -0.82,1.78 l 0,0 c 0.28,0.63 -0.02,1.07 0.08,1.63 l 0,0 c -0.67,0.97 -0.49,2.22 -1.16,3.19 l 0,0 c 0.14,0.37 -0.01,0.77 -0.12,1.11 l 0,0 c -0.13,0.44 -0.47,1.01 -0.56,1.46 l 0,0 c -0.08,0.4 0.14,0.97 -0.34,1.29 l 0,0 c 0.02,0.25 -0.02,0.48 0,0.74 l 0,0 c -0.15,0.34 -0.38,0.63 -0.53,1.02 l 0,0 c -0.08,0.2 0,0.46 -0.1,0.67 l 0,0 c -0.13,0.27 -0.41,0.47 -0.54,0.76 l 0,0 c -0.25,0.57 -0.44,1.24 -0.58,1.91 l 0,0 c -0.13,0.57 -0.24,0.98 -0.12,1.6 l 0,0 c -0.58,0.91 -0.98,1.88 -1.7,2.73 l 0,0 c -0.24,1.41 -0.81,2.71 -2.02,3.81 l 0,0 c -0.22,0.83 -0.34,1.69 -0.58,2.52 l 0,0 c -0.61,0.38 -0.59,0.97 -0.74,1.5 l 0,0 c 9.27,-15.92 14.52,-34.24 14.42,-53.71 l 0,0 C 235.86,89.78 222.64,62.22 201.48,42.41 l 0,0 c -21,-19.65 -49.91,-31.78 -81.72,-31.78 l 0,0 c -0.2,0 -0.4,0 -0.6,0 M 60.84,33.86 c 0.47,-0.22 0.63,-0.83 1.16,-0.93 l 0,0 c 0.56,0.38 1.23,0.08 1.78,0.53 l 0,0 c -0.63,0.64 -1.64,1.02 -2.46,1.23 l 0,0 c -0.5,0.47 -0.96,1.09 -1.57,1.34 l 0,0 c -0.47,0.2 -1.05,0.14 -1.57,0.41 l 0,0 c -0.42,0.22 -0.65,0.6 -1.07,0.86 l 0,0 c -0.34,0.21 -0.84,0.19 -1.19,0.47 l 0,0 c -0.12,0.1 -0.18,0.33 -0.32,0.45 l 0,0 c -0.67,0.56 -1.58,1.16 -2.37,1.48 l 0,0 c -1.5,0.6 -3.25,0.77 -4.03,2.26 l 0,0 C 48.87,42.1 48.38,42 48.08,42.23 l 0,0 c -0.16,0.11 -0.15,0.34 -0.29,0.49 l 0,0 c -0.5,0.56 -1.55,0.56 -1.83,1.36 l 0,0 c -0.09,0.1 -0.16,0.07 -0.23,0.04 l 0,0 c -0.07,-0.03 -0.13,-0.05 -0.21,0.01 l 0,0 c -0.14,0.14 -0.17,0.31 -0.23,0.47 l 0,0 c -0.1,0.04 -0.2,0.03 -0.29,0.03 l 0,0 c -0.04,0 -0.07,0 -0.11,0 l 0,0 c -0.41,0.85 -1.76,1.46 -1.73,2.44 l 0,0 c -0.6,0.25 -0.74,0.66 -0.64,1.2 l 0,0 c -1.56,1.23 -2.68,2.95 -2.99,4.67 l 0,0 c -1.09,0.87 -2.68,1.95 -2.78,3.23 l 0,0 c -1.19,0.29 -1.14,1.61 -2.15,2.11 l 0,0 c -0.17,0.16 -0.08,0.38 -0.17,0.57 l 0,0 c -0.54,0.22 -0.77,0.79 -0.79,1.28 l 0,0 c -1.05,0.49 -2.19,1.67 -2.59,2.71 l 0,0 c -0.8,0.75 -1.65,1.85 -1.92,2.89 l 0,0 c -0.64,0.4 -0.64,1.1 -1.14,1.69 l 0,0 c -0.18,0.2 -0.48,0.99 -0.74,1.25 l 0,0 c -0.71,0.73 -1.04,1.77 -1.82,2.51 l 0,0 c -0.13,0.5 -0.41,0.96 -0.88,1.36 l 0,0 c -0.07,0.35 -0.66,0.83 -0.82,1.23 l 0,0 c -0.4,0.96 -0.65,2.05 -1.34,2.74 l 0,0 c -0.28,0.28 -0.25,0.59 -0.44,0.99 l 0,0 c -0.2,0.4 -0.63,0.7 -0.49,1.32 l 0,0 c -0.31,0.46 -0.5,0.95 -0.51,1.5 l 0,0 c -0.3,0.2 -0.13,0.41 -0.5,0.48 l 0,0 c -0.08,0.19 0.13,0.45 -0.25,0.55 l 0,0 c -0.06,0.2 0.06,0.47 0.03,0.67 l 0,0 c -0.8,0.76 -0.62,1.78 -1.31,2.57 l 0,0 c 0.19,0.6 -0.28,1.02 -0.11,1.61 l 0,0 c -0.3,0.14 -0.16,0.4 -0.37,0.56 l 0,0 c 0.04,0.13 -0.02,0.22 0.11,0.38 l 0,0 c -0.36,0.39 -0.21,1.02 -0.35,1.55 l 0,0 c -0.09,0.34 -0.33,0.62 -0.36,1.01 l 0,0 c -0.04,0.45 0.11,1.17 -0.02,1.63 l 0,0 c -0.09,0.35 -0.34,0.57 -0.47,0.94 l 0,0 c 0.04,0.53 -0.16,0.99 -0.42,1.44 l 0,0 c 0.25,0.84 -0.4,1.43 -0.39,2.2 l 0,0 c -0.97,0.83 -0.28,2.1 -0.95,3.01 l 0,0 c 0.19,1.09 -0.53,1.82 -0.73,2.72 l 0,0 c -0.06,0.29 0.29,0.63 0.42,1.05 l 0,0 c 0.16,0.58 -0.25,1.06 -0.26,1.57 l 0,0 c -1.28,0.64 -0.38,2.22 0.64,3.05 l 0,0 c 0.11,0.77 -0.24,1.41 -0.47,2.1 l 0,0 c 0.09,0.35 0.25,0.74 -0.01,1.01 l 0,0 c 0.49,0.9 -0.35,1.44 0.1,2.33 l 0,0 c -0.38,0.62 -0.35,1.35 -0.34,2.08 l 0,0 c -0.76,0.83 0.26,2.14 -0.42,2.99 l 0,0 c -0.06,0.27 -0.05,0.55 0.18,0.89 l 0,0 c -0.75,1 -1.07,2.13 -1.49,3.23 l 0,0 c 0.09,0.2 0.19,0.23 0.29,0.34 l 0,0 c -0.23,1.11 -0.28,2.29 -0.48,3.42 l 0,0 c 0.23,0.35 0.16,0.64 0.38,0.98 l 0,0 c -0.26,0.94 -0.15,2.15 0.63,3.23 l 0,0 c -0.01,0.2 -0.1,0.39 -0.25,0.55 l 0,0 c 0.08,1.02 0.13,2.05 0.34,3.11 l 0,0 c 0.38,0.63 0.56,1.22 0.53,1.74 l 0,0 c 0.14,0.21 0.3,0.26 0.53,0.5 l 0,0 c -0.28,0.14 0.2,0.5 0.12,0.69 l 0,0 c -0.58,0.87 -0.27,1.97 0.12,3.1 l 0,0 c -0.1,0.18 0.01,0.41 -0.25,0.55 l 0,0 c 0.1,0.38 -0.01,0.7 0.19,1.12 l 0,0 c -0.38,1.3 -0.13,2.77 -0.28,4.13 l 0,0 c 0.66,0.53 0.26,1.24 0.38,1.83 l 0,0 c 0.12,0.52 0.52,1.34 0.95,1.54 l 0,0 c -0.05,0.38 -0.03,1.06 0.46,1.32 l 0,0 c 0.29,1.14 0.38,2.43 1.04,3.65 l 0,0 c 0.41,0.75 1.05,1.44 1.02,2.27 l 0,0 c 0.06,-0.01 0.1,0.06 0.14,0.14 l 0,0 c 0.05,0.08 0.1,0.15 0.16,0.13 l 0,0 c 0.06,1.23 1.22,2.28 2.06,3.45 l 0,0 c 0.12,0.14 -0.12,0.2 -0.05,0.34 l 0,0 c 0.4,0.51 0.42,1.16 0.56,1.57 l 0,0 c 0.05,0.14 0.21,0.24 0.25,0.38 l 0,0 c 0.02,0.09 -0.07,0.25 -0.05,0.34 l 0,0 c 0.18,0.76 0.73,1.53 0.66,2.35 l 0,0 c 0.64,1.03 0.78,2.16 1.39,3.04 l 0,0 c -0.14,0.81 0.95,1.75 1.03,2.72 l 0,0 c 0.76,1.32 1.56,2.77 2,4.18 l 0,0 c 0.05,0.17 0,0.34 0.05,0.51 l 0,0 c 0.4,0.98 1.25,1.82 1.19,2.85 l 0,0 c 0.15,0.12 0.3,0.36 0.45,0.48 l 0,0 c -0.21,0.34 0.05,0.95 0.46,1.32 l 0,0 c 0.47,2.05 1.85,4.41 2.3,6.61 l 0,0 c -0.23,0.06 -0.47,0.11 -0.7,0.08 l 0,0 c -0.95,-1.14 -1.19,-1.9 -2.07,-3.05 l 0,0 c -0.12,-0.16 -0.27,-0.13 -0.4,-0.2 l 0,0 c -0.53,-0.85 -1.09,-1.97 -1.82,-2.68 l 0,0 c -0.12,-0.4 -0.66,-1.54 -1.04,-2.1 l 0,0 c -0.26,-0.39 -0.6,-0.47 -0.69,-0.86 l 0,0 c -0.05,-0.21 0.06,-0.42 -0.19,-0.8 l 0,0 c -0.14,-0.21 -0.39,-0.31 -0.53,-0.5 l 0,0 c -0.39,-0.51 -0.82,-1.42 -1.1,-1.98 l 0,0 c -0.19,-0.36 -0.2,-0.76 -0.37,-1.08 l 0,0 c -0.05,-0.1 -0.21,-0.19 -0.26,-0.29 l 0,0 c -0.5,-1.11 -1.2,-2.53 -1.96,-3.82 l 0,0 c 0.05,-0.26 -0.06,-0.29 -0.2,-0.72 l 0,0 c -0.04,-0.1 0.04,-0.24 0.04,-0.25 l 0,0 c -0.03,-0.05 -0.08,-0.02 -0.11,0.01 l 0,0 c -0.03,0.02 -0.06,0.04 -0.07,0.03 l 0,0 c -0.06,-0.07 -0.03,-0.31 -0.1,-0.47 l 0,0 c -0.1,-0.23 -0.39,-0.45 -0.43,-0.56 l 0,0 c -0.11,-0.26 -0.01,-0.49 -0.12,-0.69 l 0,0 c -0.09,-0.17 -0.29,-0.28 -0.37,-0.46 l 0,0 c -0.13,-0.28 0.02,-0.59 -0.08,-0.95 l 0,0 c -0.16,-0.55 -0.68,-0.95 -0.45,-1.41 l 0,0 c -0.49,-0.59 -1.07,-1.2 -1.04,-1.79 l 0,0 c -0.78,-1.41 -1.47,-2.99 -1.86,-4.5 l 0,0 c -0.2,-0.22 -0.4,-0.44 -0.61,-0.61 l 0,0 c 0.19,-0.08 0.23,-0.2 0.26,-0.33 l 0,0 c -1.08,-1.3 -0.68,-2.91 -1.63,-4.04 l 0,0 c 0.1,-0.12 0.17,-0.24 0.14,-0.4 l 0,0 c -0.34,-0.45 -0.28,-0.79 -0.6,-1.23 l 0,0 c 0.16,-0.15 0.05,-0.37 0.12,-0.55 l 0,0 c -0.92,-1.58 -0.58,-2.81 -1.46,-4.39 l 0,0 c 0.2,-0.34 0.21,-0.88 -0.2,-1.25 l 0,0 c -0.06,-0.9 -0.41,-1.88 -0.39,-2.76 l 0,0 c -0.09,-0.14 -0.19,-0.29 -0.28,-0.44 l 0,0 c -0.1,-0.27 0.09,-0.47 0.06,-0.73 l 0,0 c -0.65,-1.2 -0.52,-2.56 -0.72,-3.78 l 0,0 c -0.12,-0.18 -0.23,-0.37 -0.35,-0.54 l 0,0 c 0,-0.21 0.03,-0.4 0.08,-0.6 l 0,0 c -0.09,-0.22 -0.21,-0.16 -0.29,-0.35 l 0,0 c 0.44,-1.01 -0.27,-2.34 -0.49,-3.54 l 0,0 c 0.01,-0.23 0.25,-0.41 0.27,-0.64 l 0,0 c -0.29,-0.74 -0.66,-1.51 -0.27,-2.07 l 0,0 C 8.7,127.27 9.24,125.7 8.62,123.81 l 0,0 c 0.34,-0.43 0.07,-1.04 -0.2,-1.65 l 0,0 c 0.31,-0.74 0.39,-1.54 -0.08,-2.5 l 0,0 c 0.43,-1.18 -0.02,-2.61 0.37,-3.8 l 0,0 c -0.24,-0.49 0.08,-0.83 -0.28,-1.36 l 0,0 c 0.01,-0.46 -0.14,-0.95 -0.18,-1.43 l 0,0 c 0.13,-0.14 0.24,-0.28 0.4,-0.42 l 0,0 c -0.27,-1.05 0.32,-1.86 -0.1,-2.95 l 0,0 c 0.41,-0.51 0.34,-1.15 0.09,-1.84 l 0,0 c 0.56,-0.75 0.38,-1.69 0.5,-2.56 l 0,0 c -0.11,-0.15 -0.04,-0.13 0.03,-0.1 l 0,0 c 0.04,0.01 0.09,0.02 0.11,0 l 0,0 c 0.08,-0.93 -0.05,-1.9 0.64,-2.66 l 0,0 c -0.29,-0.61 -0.1,-1.1 0.01,-1.64 l 0,0 c 0.06,-0.3 -0.04,-0.66 0.05,-0.96 l 0,0 c 0.03,-0.1 0.15,-0.17 0.17,-0.26 l 0,0 c 0.08,-0.35 0.06,-0.44 0.24,-0.78 l 0,0 c 0.14,-0.27 -0.05,-0.62 -0.04,-0.98 l 0,0 c 0.01,-0.3 0.19,-0.62 0.27,-0.95 l 0,0 c 0.02,-0.08 -0.07,-0.21 -0.05,-0.28 l 0,0 c 0.18,-0.67 0.66,-1.3 0.76,-1.97 l 0,0 c 0.04,-0.22 -0.08,-0.43 0.14,-0.63 l 0,0 c -0.12,-0.48 0.2,-0.84 0.01,-1.32 l 0,0 c 0.31,-0.45 0.4,-0.95 0.3,-1.51 l 0,0 c 0.65,-0.52 0.93,-1.13 0.57,-1.93 l 0,0 c 0.47,-0.82 0.21,-1.83 0.89,-2.59 l 0,0 c 0.15,-0.64 0.09,-1.51 0.74,-1.88 l 0,0 c 0.11,-0.74 0.41,-1.45 0.79,-2.13 l 0,0 c -0.1,-0.16 -0.27,-0.34 -0.24,-0.47 l 0,0 c 0.19,-0.11 0.36,-0.23 0.44,-0.37 l 0,0 c 0.14,-0.98 0.92,-1.79 0.96,-2.79 l 0,0 c 0.1,-0.06 0.19,-0.12 0.29,-0.18 l 0,0 c 0.3,-1.58 1.41,-2.92 1.75,-4.48 l 0,0 c 0.18,-0.1 0.31,-0.21 0.39,-0.34 l 0,0 c 0.57,-2.26 2.58,-4.14 3.15,-6.4 l 0,0 c 0.2,-0.12 0.23,-0.29 0.49,-0.4 l 0,0 c 0.56,-0.63 0.88,-1.33 1.02,-2.07 l 0,0 c 0.43,-0.28 0.46,-0.66 0.89,-0.82 l 0,0 c 0.61,-0.93 0.95,-1.92 1.77,-2.79 l 0,0 c 0.32,-0.71 0.81,-1.37 1.5,-1.99 l 0,0 c 0.05,-0.25 0.22,-0.46 0.28,-0.72 l 0,0 c 1.15,-1.02 2.27,-2.21 2.74,-3.5 l 0,0 c 0.06,-0.04 0.13,-0.04 0.19,-0.04 l 0,0 c 0.08,0 0.16,0 0.26,-0.1 l 0,0 c 0.34,-0.69 0.99,-1 1.28,-1.77 l 0,0 c 0.93,-0.25 1.48,-1.3 2.12,-1.86 l 0,0 c 0.09,-0.79 0.75,-1.05 1.42,-1.47 l 0,0 C 36.04,49.82 36.4,49.13 37.01,49 l 0,0 c 0.09,-0.79 0.8,-0.98 1.41,-1.38 l 0,0 c 0.2,-0.13 0.27,-0.38 0.46,-0.54 l 0,0 C 39.9,46.21 41.35,45.64 42,44.56 l 0,0 c 0.15,-0.14 0.27,-0.09 0.41,-0.11 l 0,0 C 43.14,43.5 44.49,43.14 44.6,42 l 0,0 c 0.13,-0.06 0.24,-0.03 0.35,0.01 l 0,0 c 0.09,0.04 0.19,0.07 0.3,0.03 l 0,0 c 0.89,-0.75 1.82,-1.21 2.73,-1.64 l 0,0 c 0.47,-0.67 1.13,-1.36 1.94,-1.82 l 0,0 c 0.14,-0.13 0.15,-0.31 0.24,-0.47 l 0,0 c 0.1,-0.05 0.18,0.01 0.27,0.07 l 0,0 c 0.07,0.04 0.14,0.09 0.23,0.08 l 0,0 c 0.71,-0.79 1.83,-0.94 2.7,-1.39 l 0,0 c 0.31,-0.17 0.47,-0.24 0.79,-0.36 l 0,0 c 0.57,-0.22 1.07,-0.73 1.64,-0.92 l 0,0 c 0.1,-0.04 0.23,-0.02 0.36,0 l 0,0 c 0.11,0.02 0.23,0.04 0.33,0.01 l 0,0 c 0.63,-0.17 1.13,-0.87 1.82,-0.65 l 0,0 c 0.65,-0.28 1.15,-0.78 1.78,-1.02 l 0,0 c 0.11,-0.04 0.26,-0.04 0.4,-0.03 l 0,0 c 0.04,0 0.09,0 0.13,0 l 0,0 c 0.11,0 0.22,-0.01 0.31,-0.05 m 156.99,131.83 c 0.26,-0.15 0.36,0.33 0.21,0.42 l 0,0 c -0.17,0 -0.18,-0.31 -0.21,-0.42 m -96.85,50.55 c 0.12,-0.06 0.18,0.07 0.24,0.2 l 0,0 c -0.04,0.01 -0.07,0.02 -0.09,0.02 l 0,0 c -0.1,0 -0.12,-0.11 -0.15,-0.22 m 95.03,-48.13 c 0.06,0.1 0.14,0.03 0.24,-0.05 l 0,0 c 0.08,-0.06 0.18,-0.13 0.28,-0.09 l 0,0 c -0.07,0.39 0.21,0.6 0.38,0.91 l 0,0 c 0.06,-0.14 0.11,-0.29 0.15,-0.43 l 0,0 c -0.11,-0.22 -0.21,-0.43 -0.18,-0.66 l 0,0 c -0.09,-0.09 -0.15,-0.04 -0.22,0 l 0,0 c -0.06,0.04 -0.13,0.09 -0.22,0.02 l 0,0 c -0.17,-0.28 -0.01,-0.58 -0.26,-0.77 l 0,0 c -0.45,0.32 -0.06,0.67 -0.18,1.06 m 1.58,-0.23 c 0,0 0,0 0.01,-0.01 l 0,0 c 0.02,-0.16 0.07,-0.31 0.14,-0.46 l 0,0 c -0.12,0.09 -0.2,0.3 -0.15,0.47 m -1.11,1.03 c -0.07,0.19 0.01,0.36 0.15,0.49 l 0,0 c 0.04,-0.08 0.09,-0.16 0.13,-0.25 l 0,0 c -0.09,-0.1 -0.16,-0.24 -0.28,-0.24 l 0,0 c 0,0 0,0 -0.01,0 m -2.91,2.27 c -0.12,0.1 -0.26,0.2 -0.46,0.16 l 0,0 c -0.12,0.15 -0.14,0.35 -0.1,0.57 l 0,0 c -0.22,0.1 -0.44,0.08 -0.48,0.31 l 0,0 c 0.26,0.23 0.6,0.2 0.8,0.56 l 0,0 c 0.01,0.57 -1,0.82 -1.12,1.36 l 0,0 c 0.17,0.18 0.47,-0.04 0.69,-0.04 l 0,0 c 0.08,0.25 0.55,0.53 0.16,0.7 l 0,0 c 0.04,0.02 0.08,0.03 0.13,0.04 l 0,0 c 0.1,-0.15 0.2,-0.3 0.31,-0.45 l 0,0 c -0.4,-0.15 -0.47,-0.73 -0.26,-1.03 l 0,0 c 0.24,-0.05 0.45,0.02 0.57,0.36 l 0,0 c -0.12,0.06 -0.24,0.12 -0.36,0.18 l 0,0 c 0.06,0.14 0.14,0.18 0.24,0.21 l 0,0 c 0.21,-0.31 0.42,-0.62 0.63,-0.93 l 0,0 c -0.14,-0.19 -0.28,-0.4 -0.46,-0.66 l 0,0 c -0.06,-0.24 0.3,-0.35 0.12,-0.65 l 0,0 c -0.07,-0.14 -0.14,-0.06 -0.22,0.01 l 0,0 c -0.07,0.08 -0.15,0.15 -0.22,0.02 l 0,0 c -0.17,-0.49 0.64,-0.27 0.33,-0.88 l 0,0 c -0.01,-0.01 -0.03,-0.01 -0.05,-0.01 l 0,0 c -0.07,0 -0.15,0.09 -0.25,0.17 m 7.35,3.91 c 0.17,-0.28 0.33,-0.57 0.5,-0.85 l 0,0 c -0.22,0.27 -0.37,0.56 -0.5,0.85 m -0.92,1.41 c -0.08,0.05 -0.07,0.13 -0.06,0.2 l 0,0 c 0.08,-0.12 0.15,-0.24 0.23,-0.37 l 0,0 c -0.05,0.05 -0.1,0.11 -0.16,0.16 m -6.47,9.8 c 0.08,-0.03 0.14,0.02 0.23,-0.06 l 0,0 c -0.02,-0.04 -0.05,-0.1 -0.08,-0.16 l 0,0 c -0.13,0.04 -0.19,0.11 -0.15,0.22"
       id="outer_o"
       style="fill:#ffffff;stroke:none;fill-opacity:1"
       inkscape:connector-curvature="0" />
    <g
       style="fill:#ffffff;fill-opacity:1"
       transform="translate(-474,0)"
       id="beacon">
      <path
         d="m 628.58,64.64 0,19.22 22.72,0 0,-20.14 -11.16,-2.74 -11.56,3.66 z"
         id="fire"
         style="fill:#ffffff;stroke:none;fill-opacity:1"
         inkscape:connector-curvature="0" />
      <path
         d="m 627.39,67.47 c 0.23,-0.63 1.25,-1.52 2.83,-2.36 2.32,-1.24 5.84,-2.38 9.79,-2.43 6.63,-0.1 12.1,2.87 12.7,4.41 l 0.06,0 0,-0.01 c -0.06,-3.58 -5.2,-10.05 -11.7,-10.26 l -3.15,0.11 c -6.05,0.62 -10.64,7.12 -10.59,10.53 l 0,0.01 0.06,0 z"
         id="cap"
         style="fill:#ffffff;fill-opacity:1;fill-rule:nonzero;stroke:none"
         inkscape:connector-curvature="0" />
      <g
         id="column"
         style="fill:#ffffff;stroke:none;fill-opacity:1">
        <path
           d="m 635.55,75.19 c -6.21,0.44 -11.87,2.99 -11.87,2.99 l 0,0 0,5.38 c 0,0 -0.03,1.36 2.63,2.25 l 0,0 0.13,5.46 c -7.22,0.95 -12.04,2.56 -12.01,4.31 l 0,0 c 0,0.44 2.25,3.62 2.25,3.62 l 0,0 c 0,0 0.78,0.96 1.72,1.1 l 0,0 c 0.94,0.14 2.58,0.95 3.64,1.82 l 0,0 c 1.07,0.87 1.95,2.52 1.97,3.69 l 0,0 c 0.02,1.16 1.2,2.1 2.62,2.07 l 0,0 3.39,-0.05 c -4.06,2.31 -5.35,4.76 -6.55,6.46 l 0,0 c -1.24,1.74 -2.28,16.8 -2.28,16.8 l 0,0 c 0,0 0.57,-1.52 2.88,-5.11 l 0,0 c 2.31,-3.58 11.46,-8.51 18.35,-12.25 l 0,0 c 5.78,-3.14 11.02,-6.26 11.02,-6.26 l 0,0 c 1.34,-0.78 2.55,-1.43 2.55,-2.58 l 0,0 c 0,-1.4 0.59,-3.08 1.35,-3.73 l 0,0 c 0.76,-0.67 2.15,-1.33 3.09,-1.5 l 0,0 c 0.93,-0.16 1.68,-1.15 1.68,-1.15 l 0,0 c 0,0 2.14,-3.25 2.13,-3.69 l 0,0 c -0.02,-1.67 -4.44,-3.07 -11.12,-3.83 l 0,0 -0.13,-5.41 c 1.94,-0.59 3.09,-1.28 3.07,-2.02 l 0,0 0,-5.38 c 0,0 -5.07,-2.81 -11.83,-3.11 l 0,0 c -2.42,0 -6.33,0 -8.67,0.12"
           id="top"
           style="fill:#ffffff;fill-opacity:1"
           inkscape:connector-curvature="0" />
        <path
           d="m 642.45,128.1 c -15.04,7.24 -22.43,10.89 -23.5,18.67 l 0,0 c -1.07,7.78 -2.22,15.42 -2.22,15.42 l 0,0 c 0.93,-5.6 11.84,-12.19 22.76,-17.5 l 0,0 c 10.92,-5.3 18.74,-8.75 18.23,-14.51 l 0,0 c -0.45,-5.14 -1.54,-12.22 -1.77,-13.67 l 0,0 c 0.08,1.08 -0.57,5.38 -13.49,11.6"
           id="middle"
           style="fill:#ffffff;fill-opacity:1"
           inkscape:connector-curvature="0" />
        <path
           d="m 640.26,162.25 c -20.34,9.48 -25.38,12.09 -25.97,17.91 l 0,0 c -0.51,5.01 -1.68,15.57 -2,18.42 l 0,0 c 0.39,-1.55 2.49,-5.54 13.28,-11.4 l 0,0 c 14.1,-7.67 36.69,-14.04 36.14,-22.06 l 0,0 c -0.54,-8.02 -2.06,-18.59 -2.06,-18.59 l 0,0 c 0,0 0.94,6.24 -19.4,15.73"
           id="bottom"
           style="fill:#ffffff;fill-opacity:1"
           inkscape:connector-curvature="0" />
      </g>
      <path
         d="m 698.94,17.83 c -78.62,68.64 -72.74,53.81 -18,45.42 -54.74,8.39 -63.63,-4.87 27.19,40.57 -90.82,-45.44 -74.9,-44.42 -48.75,-3.09 -26.15,-41.33 -16.29,-53.88 -30.19,38.41 13.9,-92.29 17.86,-76.83 -12.12,-47.32 29.99,-29.51 44.96,-24.01 -45.85,-16.84 90.82,-7.17 77.34,1.37 41.26,-26.16 36.08,27.52 35.48,43.47 1.84,-48.82 33.63,92.3 21.35,82.11 37.62,31.17 -16.27,50.94 -31.63,55.3 47,-13.34"
         id="flare"
         style="opacity:0.69999999999999996;fill:#ffffff;fill-opacity:1;fill-rule:nonzero;stroke:none"
         inkscape:connector-curvature="0" />
    </g>
  </g>
</svg>
